<?xml version="1.0" ?><!DOCTYPE svg  PUBLIC '-//W3C//DTD SVG 1.1//EN'  'http://www.w3.org/Graphics/SVG/1.1/DTD/svg11.dtd'><svg enable-background="new 0 0 128 128" id="Layer_1" version="1.1" viewBox="0 0 128 128" xml:space="preserve" xmlns="http://www.w3.org/2000/svg" xmlns:xlink="http://www.w3.org/1999/xlink"><path d="M24.3,21.9c0,0-6.2,2.4-8.2,4c-4.6,3.7-6.7,67.7,4.8,86.6c2.5,4.1,4.4,5.2,15.5,5.5  c30.5,0.7,72.6-8.7,77.3-19.4C118.4,87.8,24.3,21.9,24.3,21.9z" fill="#969696"/><path d="M24.1,20.2c-2,1.1-5.3,2.1-8,5.6c-3,3.9-5.3,66.3,6.1,85.2c2.5,4.1,4.4,5.2,15.5,5.5  c30.5,0.7,72.8-7.7,77.3-18.6C119.6,87.2,24.1,20.2,24.1,20.2z" fill="#EAEAEA"/><g opacity="0.1"><path d="M31.3,106.5c-9.7-22.4-8.5-71.6-8.1-82c-0.5,8.5-3.9,59.7,6.3,83.4c15.9,9,51.1,6.6,72.1-2.9   C79.8,113.5,47,115.4,31.3,106.5z"/></g><path d="M24.1,20.2c-1.2,0.4-6,1.3-9,7.1c3.2-4.9,7.5-4.8,7.3-2.4C22.3,26.5,25.8,20,24.1,20.2z" fill="#998482"/><path d="M19.4,22.3c2.5-0.6,3,2.1,3,3.4c-0.4,11.5-0.3,59.4,8.9,80.9c19.5,11,68.5,5.1,83.8-8.2  c2.4-12.2-4.7-66.3-7.1-73.5c-0.3-0.9-1-1.6-2-1.8c-7.6-1.7-43.2-8.8-81.2-3C23.6,20.2,21.3,20.6,19.4,22.3z" fill="#F2F2F2"/><path d="M15.1,27.4c0,0,3.6-2.2,5.7,3.2s1.6,12.8,1.6,12.8L32.7,33l-8.4-11.1  C24.3,21.9,19,20.3,15.1,27.4z" fill="#969696" opacity="0.3"/><path d="M32.5,105.5C32.5,105.5,32.5,105.5,32.5,105.5c-6.5-15-9-55-10.2-68.7c0.3,13.7,2,53.6,9,69.7c0,0,0,0,0,0  c12.3,7,37.8,6.5,58.8,1.7C69.3,111.6,44.3,112.3,32.5,105.5z" fill="#FFFFFF"/><path d="M69.4,41.8c13.3,0.6,31.1,2.3,42.1,2.9c-1.3-9-2.7-17.5-3.5-19.8c-0.3-0.9-1-1.6-2-1.8  c-7.6-1.7-43.2-8.8-81.2-3c-1.3,0.2-3.6,0.6-5.4,2.3c2.5-0.6,3,2.1,3,3.4c-0.1,3.3-0.2,9.8,0,17.7C30.3,42.5,52.6,40.9,69.4,41.8z" opacity="0.1"/><path d="M69.4,41c13.3,0.6,30.9,1.6,41.9,2.2c-1.3-9-2.5-16.1-3.3-18.4c-0.3-0.9-1-1.6-2-1.8  c-7.6-1.7-43.2-8.8-81.2-3c-1.3,0.2-3.6,0.6-5.4,2.3c2.5-0.6,3,2.1,3,3.4c-0.1,3.3-0.2,9.8,0,17.7C30.3,42.5,52.6,40.2,69.4,41z" fill="#F2948B"/><ellipse cx="40.7" cy="25.2" fill="#684A47" rx="3" ry="1.5" transform="matrix(9.080718e-02 0.9959 -0.9959 9.080718e-02 62.1722 -17.6158)"/><path d="M104.8,25c0.9,0.2,1.7,0.9,2,1.8c1.4,4.2,2,3.5,4.5,16.4c-2.1-13.3-2.1-14.1-3.3-18.4  c-0.3-0.9-1-1.6-2-1.8c-6.2-1.4-31-6.4-60.6-5C74,17.9,99,23.7,104.8,25z" fill="#FFFFFF" opacity="0.25"/><path d="M35.7,18.7c0-0.3,0-0.7,0-1c0.2-2.2,1.6-4,3.5-4.4c2.4-0.5,4.9,1.4,5.4,4.3c0.1,0.6,0.1,1.1,0.1,1.7  c-0.2,2.2-1.6,4-3.5,4.4c-0.2,0-0.5,0.1-0.7,0.1c-0.8,0-0.6,3.1,0.3,3.1c0.3,0,0.7-0.1,1-0.1c4.1-0.8,6.7-5.2,5.8-9.7  c-0.9-4.5-5-7.6-9.1-6.7c-3.8,0.8-6.3,4.6-5.9,8.8C33.8,18.9,34.7,18.8,35.7,18.7z" fill="#727373"/><path d="M32.7,19c1-0.1,2-0.2,3-0.3c0-0.3,0-0.7,0-1c0-0.2,0.1-0.4,0.1-0.6l-3.1,0C32.7,17.7,32.7,18.3,32.7,19z" opacity="0.2"/><ellipse cx="69.4" cy="24.2" fill="#684A47" rx="2.8" ry="1.4" transform="matrix(9.080718e-02 0.9959 -0.9959 9.080718e-02 87.1739 -47.1362)"/><ellipse cx="94" cy="26.4" fill="#684A47" rx="2.7" ry="1.4" transform="matrix(9.080718e-02 0.9959 -0.9959 9.080718e-02 111.7591 -69.6437)"/><path d="M70.5,25.5c3.8-0.8,6.3-4.8,5.4-9.1c-0.9-4.2-4.7-7-8.5-6.3c-3.4,0.7-5.6,4-5.5,7.7c0.9,0,1.9,0.1,2.8,0.1  c0-0.3,0-0.6,0-0.9c0.2-2.1,1.5-3.7,3.2-4.1c2.3-0.5,4.5,1.3,5.1,4c0.1,0.5,0.1,1,0.1,1.6c-0.2,2.1-1.5,3.7-3.2,4.1  c-0.2,0-0.4,0.1-0.6,0.1c-0.8,0-0.6,2.8,0.3,2.9C69.9,25.7,70.2,25.6,70.5,25.5z" fill="#727373"/><path d="M64.7,18c0-0.3,0-0.6,0-0.9c0,0,0,0,0,0c0-0.2,0.1-0.4,0.1-0.6l-2.6-1.4c-0.3,0.9-0.4,1.8-0.3,2.8  C62.9,17.9,63.8,18,64.7,18C64.7,18,64.7,18,64.7,18z" opacity="0.2"/><path d="M95.1,27.7c3.7-0.7,6-4.7,5.2-8.7s-4.5-6.8-8.2-6c-3.1,0.6-5.2,3.6-5.3,6.9c0.9,0.1,1.8,0.2,2.7,0.4  c0-0.2,0-0.4,0-0.6c0.2-2,1.4-3.6,3.1-3.9c2.2-0.4,4.4,1.3,4.9,3.8c0.1,0.5,0.1,1,0.1,1.5c-0.2,2-1.4,3.6-3.1,3.9  c-0.2,0-0.4,0.1-0.6,0.1c-0.7,0-0.6,2.7,0.3,2.8C94.5,27.8,94.8,27.7,95.1,27.7z" fill="#727373"/><path d="M89.5,20.2C89.5,20.2,89.5,20.2,89.5,20.2c0-0.2,0-0.4,0-0.6c0,0,0,0,0,0c0-0.2,0-0.4,0.1-0.6l-2.4-1.5  c-0.2,0.7-0.4,1.5-0.4,2.3C87.7,19.9,88.6,20.1,89.5,20.2z" opacity="0.2"/><g><path d="M70.2,83.2c0.1,0.6-0.3,1.1-1.3,1.5c-0.3,0-0.8,0-1.3,0.2c-0.4,0-1.7,0.5-3.9,1.3c-2.5,0.9-4.3,1.7-5.5,2.5   c-0.3,0.2-0.6,0.4-0.9,0.7c-0.3,0.3-0.4,0.4-0.5,0.5c-0.4,0.1-1.4-0.4-3.1-1.5c-0.5-0.2-1-0.5-1.4-0.8c-0.5-0.3-0.7-0.6-0.8-1.1   c0-0.2,1-1.8,2.9-4.8c2.4-3.7,4.3-6.7,5.6-9.1c2-3.7,3.1-6.7,3.2-8.8c-1.8,0.8-3.6,2.4-5.3,5.1c-0.1,0.1-0.2,0.3-0.2,0.6   c0,0.3-0.1,0.5-0.2,0.6c-0.2,0.3-0.6,0.5-1,0.5c-0.8,0-1.7-0.3-2.9-1c-0.5-0.2-1-0.5-1.4-0.7c-0.6-0.3-0.9-0.5-0.9-0.8   c-0.1-0.5,0.5-1.6,1.7-3.2c1.3-1.7,2.7-3.1,4.2-4.2c1.9-1.4,3.5-2.1,5-2.1c0.6,0,1.1,0.2,1.6,0.5c0.5,0.3,1,0.7,1.5,1.1   c1.9,1.2,3.2,2.4,3.7,3.5c0.1,0.2,0.2,0.5,0.2,0.9c0.1,1.5-0.7,4.1-2.4,7.7c-1.5,3.4-3.2,6.4-5,9c0.7-0.3,1.7-0.7,3-1.2   c0.1-0.1,0.4-0.3,0.7-0.5c0.2-0.2,0.5-0.3,0.7-0.2c0.6,0,1.4,0.6,2.4,1.7C69.6,82,70.2,82.8,70.2,83.2z" fill="#C9C9C9"/><path d="M95.6,75.2c0,0.4-0.5,0.8-1.5,1.2c-1,0.2-2.1,0.4-3.4,0.7l0.3,7.1c0,0.1,0,0.2,0.1,0.4   c0.1,0.2,0.1,0.3,0.1,0.4c0,0.4-0.2,0.8-0.6,1.2c-0.4,0.4-0.8,0.5-1.2,0.5c-1.4,0-3.1-0.8-4.9-2.5c-0.2-0.2-0.3-0.5-0.3-1.1   c0-0.1,0.1-0.2,0.2-0.4c0.2-0.2,0.2-0.3,0.2-0.4l-0.1-4.1c-1.9,0.7-3.4,1.2-4.4,1.5c-1.7,0.6-2.9,0.9-3.6,1   c-0.6,0.1-1.5-0.2-2.7-0.9c-1.1-0.6-1.8-1.1-2.1-1.5c-0.1-0.1-0.2-0.3-0.2-0.5c0-0.3,0.2-0.7,0.7-1.5c0.3-0.2,0.6-0.6,1.1-1.2   c0,0,1.8-2.8,5.2-8.2c3.3-5.1,5.1-7.7,5.4-7.8c0.8-0.4,1.3-0.6,1.7-0.6c0.5,0,1.5,0.5,2.9,1.3c1.4,0.8,2.2,1.5,2.3,1.9   c0.1,0.2-0.1,0.7-0.7,1.3l0.3,8.3c0.8-0.2,1.2-0.2,1.3-0.2c0.3,0,0.5,0,0.7,0.2c0.4,0.3,1.1,0.9,1.9,1.9   C95.2,74.4,95.6,75,95.6,75.2z M84.4,73.2l-0.2-4.3l-3.6,5.6L84.4,73.2z" fill="#C9C9C9"/></g></svg>